<mxfile host="app.diagrams.net" modified="2020-12-03T00:03:03.431Z" agent="5.0 (Macintosh)" etag="QR8lns_SvIIVueMZukgZ" version="13.10.4" type="github">
  <diagram name="Page-1" id="e56a1550-8fbb-45ad-956c-1786394a9013">
    <mxGraphModel dx="1972" dy="2191" grid="1" gridSize="10" guides="1" tooltips="1" connect="1" arrows="1" fold="1" page="1" pageScale="1" pageWidth="1100" pageHeight="850" background="#ffffff" math="0" shadow="0">
      <root>
        <mxCell id="0" />
        <mxCell id="1" parent="0" />
        <mxCell id="bmUWzAHCmz6qbPRoAcMk-2" value="" style="rounded=1;whiteSpace=wrap;html=1;rotation=90;" parent="1" vertex="1">
          <mxGeometry x="-770" y="-1505" width="380" height="270" as="geometry" />
        </mxCell>
        <mxCell id="bmUWzAHCmz6qbPRoAcMk-16" style="rounded=0;orthogonalLoop=1;jettySize=auto;html=1;exitX=0.5;exitY=0.5;exitDx=0;exitDy=0;exitPerimeter=0;entryX=0;entryY=0.5;entryDx=0;entryDy=0;endArrow=none;endFill=0;" parent="1" source="bmUWzAHCmz6qbPRoAcMk-1" target="bmUWzAHCmz6qbPRoAcMk-13" edge="1">
          <mxGeometry relative="1" as="geometry" />
        </mxCell>
        <mxCell id="bmUWzAHCmz6qbPRoAcMk-17" style="edgeStyle=none;rounded=0;orthogonalLoop=1;jettySize=auto;html=1;exitX=0.5;exitY=0.5;exitDx=0;exitDy=0;exitPerimeter=0;entryX=0;entryY=0.5;entryDx=0;entryDy=0;endArrow=none;endFill=0;" parent="1" source="bmUWzAHCmz6qbPRoAcMk-1" target="bmUWzAHCmz6qbPRoAcMk-14" edge="1">
          <mxGeometry relative="1" as="geometry" />
        </mxCell>
        <mxCell id="bmUWzAHCmz6qbPRoAcMk-18" style="edgeStyle=none;rounded=0;orthogonalLoop=1;jettySize=auto;html=1;exitX=0.5;exitY=0.5;exitDx=0;exitDy=0;exitPerimeter=0;entryX=0;entryY=0.5;entryDx=0;entryDy=0;endArrow=none;endFill=0;" parent="1" source="bmUWzAHCmz6qbPRoAcMk-1" target="bmUWzAHCmz6qbPRoAcMk-15" edge="1">
          <mxGeometry relative="1" as="geometry" />
        </mxCell>
        <mxCell id="bmUWzAHCmz6qbPRoAcMk-1" value="Usuario" style="shape=umlActor;verticalLabelPosition=bottom;verticalAlign=top;html=1;outlineConnect=0;" parent="1" vertex="1">
          <mxGeometry x="-900" y="-1455" width="100" height="180" as="geometry" />
        </mxCell>
        <mxCell id="bmUWzAHCmz6qbPRoAcMk-19" style="edgeStyle=none;rounded=0;orthogonalLoop=1;jettySize=auto;html=1;exitX=0.5;exitY=0.5;exitDx=0;exitDy=0;exitPerimeter=0;entryX=1;entryY=0.5;entryDx=0;entryDy=0;endArrow=none;endFill=0;" parent="1" source="bmUWzAHCmz6qbPRoAcMk-3" target="bmUWzAHCmz6qbPRoAcMk-13" edge="1">
          <mxGeometry relative="1" as="geometry" />
        </mxCell>
        <mxCell id="bmUWzAHCmz6qbPRoAcMk-20" style="edgeStyle=none;rounded=0;orthogonalLoop=1;jettySize=auto;html=1;exitX=0.5;exitY=0.5;exitDx=0;exitDy=0;exitPerimeter=0;entryX=1;entryY=0.5;entryDx=0;entryDy=0;endArrow=none;endFill=0;" parent="1" source="bmUWzAHCmz6qbPRoAcMk-3" target="bmUWzAHCmz6qbPRoAcMk-14" edge="1">
          <mxGeometry relative="1" as="geometry" />
        </mxCell>
        <mxCell id="bmUWzAHCmz6qbPRoAcMk-21" style="edgeStyle=none;rounded=0;orthogonalLoop=1;jettySize=auto;html=1;exitX=0.5;exitY=0.5;exitDx=0;exitDy=0;exitPerimeter=0;entryX=1;entryY=0.5;entryDx=0;entryDy=0;endArrow=none;endFill=0;" parent="1" source="bmUWzAHCmz6qbPRoAcMk-3" target="bmUWzAHCmz6qbPRoAcMk-15" edge="1">
          <mxGeometry relative="1" as="geometry" />
        </mxCell>
        <mxCell id="bmUWzAHCmz6qbPRoAcMk-3" value="Covid Tester" style="shape=umlActor;verticalLabelPosition=bottom;verticalAlign=top;html=1;outlineConnect=0;" parent="1" vertex="1">
          <mxGeometry x="-360" y="-1455" width="100" height="180" as="geometry" />
        </mxCell>
        <mxCell id="bmUWzAHCmz6qbPRoAcMk-4" value="&lt;font style=&quot;font-size: 21px&quot;&gt;Nivel 0&lt;br&gt;&lt;/font&gt;" style="text;html=1;strokeColor=none;fillColor=none;align=center;verticalAlign=middle;whiteSpace=wrap;rounded=0;" parent="1" vertex="1">
          <mxGeometry x="-880" y="-1560" width="100" height="20" as="geometry" />
        </mxCell>
        <mxCell id="bmUWzAHCmz6qbPRoAcMk-5" value="Covid Factor" style="text;html=1;strokeColor=none;fillColor=none;align=center;verticalAlign=middle;whiteSpace=wrap;rounded=0;" parent="1" vertex="1">
          <mxGeometry x="-615" y="-1540" width="70" height="20" as="geometry" />
        </mxCell>
        <mxCell id="bmUWzAHCmz6qbPRoAcMk-13" value="Arduino" style="ellipse;whiteSpace=wrap;html=1;" parent="1" vertex="1">
          <mxGeometry x="-640" y="-1500" width="120" height="80" as="geometry" />
        </mxCell>
        <mxCell id="bmUWzAHCmz6qbPRoAcMk-14" value="Ordenador" style="ellipse;whiteSpace=wrap;html=1;" parent="1" vertex="1">
          <mxGeometry x="-640" y="-1400" width="120" height="80" as="geometry" />
        </mxCell>
        <mxCell id="bmUWzAHCmz6qbPRoAcMk-15" value="Dysplay" style="ellipse;whiteSpace=wrap;html=1;" parent="1" vertex="1">
          <mxGeometry x="-640" y="-1300" width="120" height="80" as="geometry" />
        </mxCell>
      </root>
    </mxGraphModel>
  </diagram>
</mxfile>
